/* XPM */
static char * green_xpm[] = {
"25 25 67 1",
" 	c None",
".	c #F1F1F1",
"+	c #EBEEEC",
"@	c #A1CAB4",
"#	c #61AA82",
"$	c #3B9765",
"%	c #2E915B",
"&	c #62AB83",
"*	c #A2CBB4",
"=	c #EDEFEE",
"-	c #BAD6C7",
";	c #2F925B",
">	c #329A61",
",	c #38AD6C",
"'	c #3DBB75",
")	c #3EC078",
"!	c #3CBB75",
"~	c #38AD6D",
"{	c #329B61",
"]	c #2F925C",
"^	c #B7D4C4",
"/	c #9BC7AE",
"(	c #2F945D",
"_	c #3BB772",
":	c #3EC179",
"<	c #3EC178",
"[	c #3BB571",
"}	c #8EC1A5",
"|	c #3EBF78",
"1	c #3EBE76",
"2	c #A7CDB8",
"3	c #3AB370",
"4	c #369661",
"5	c #3FC279",
"6	c #329C62",
"7	c #94C4AA",
"8	c #3AB26F",
"9	c #469E6E",
"0	c #3A9764",
"a	c #3DBC75",
"b	c #3CB973",
"c	c #3B9764",
"d	c #30925C",
"e	c #3CBC75",
"f	c #3B9865",
"g	c #61AA81",
"h	c #3AB270",
"i	c #479E6E",
"j	c #93C3A9",
"k	c #3BB671",
"l	c #3AB371",
"m	c #389662",
"n	c #B6D4C4",
"o	c #2F945C",
"p	c #3EBE77",
"q	c #AED0BD",
"r	c #8DC0A4",
"s	c #3AB470",
"t	c #90C2A6",
"u	c #A5CCB7",
"v	c #359560",
"w	c #329C61",
"x	c #3CB974",
"y	c #ADD0BC",
"z	c #91C2A7",
"A	c #459E6D",
"B	c #3A9763",
".........................",
".........................",
".........................",
".........................",
"........+@#$%$&*=........",
".......-;>,')!~{]^.......",
"....../(_:)))))<[(}......",
".....-(|)))))))))1]2.....",
"....+;_)))))))))))34.....",
"....@>:)))))))))))567....",
"....#,)))))))))))))89....",
"....0a)))))))))))))bc....",
"....%))))))))))))))!d....",
"....0e)))))))))))))bf....",
"....g~)))))))))))))hi....",
"....@{<)))))))))))5{j....",
"....=]k)))))))))))lm.....",
".....nop)))))))))!(q.....",
"......r]s5)))))5l(t......",
".......uvwhx!b36my.......",
".........zAB%c9z.........",
".........................",
".........................",
".........................",
"........................."};
