/* XPM */
static char * green_xpm[] = {
"25 25 32 1",
" 	c None",
".	c #2F935C",
"+	c #36A86A",
"@	c #3CBA74",
"#	c #3DBF77",
"$	c #3CBA75",
"%	c #36A769",
"&	c #2F925C",
"*	c #2E915B",
"=	c #39B06E",
"-	c #3EC078",
";	c #3EBF78",
">	c #38AE6D",
",	c #2F925B",
"'	c #3BB672",
")	c #3EC178",
"!	c #37A96A",
"~	c #3FC279",
"{	c #30965D",
"]	c #36A96A",
"^	c #35A668",
"/	c #3AB470",
"(	c #3CBB75",
"_	c #36A869",
":	c #3FC37A",
"<	c #2F945D",
"[	c #39B16E",
"}	c #3FC27A",
"|	c #30955D",
"1	c #36A768",
"2	c #39B16F",
"3	c #3AB471",
"                         ",
"                         ",
"                         ",
"                         ",
"          .....          ",
"        ..+@#$%&.        ",
"       *=------;>,       ",
"      *')-------)',      ",
"     .=)---------)!,     ",
"     .------------~{     ",
"    .]-------------^.    ",
"    .@-------------=,    ",
"    .#-------------/*    ",
"    .(-------------=,    ",
"    ._-------------^.    ",
"     &;-----------:<     ",
"     .>)----------%&     ",
"      ,')--------[.      ",
"       ,!}-----:%.       ",
"        ,|123=^<&        ",
"          .,*,.          ",
"                         ",
"                         ",
"                         ",
"                         "};
