/* XPM */
static char * grey_xpm[] = {
"25 25 42 1",
" 	c None",
".	c #D9D9D9",
"+	c #B6B6B6",
"@	c #868686",
"#	c #686868",
"$	c #5F5F5F",
"%	c #858585",
"&	c #C8C8C8",
"*	c #606060",
"=	c #7B7B7B",
"-	c #898989",
";	c #8E8E8E",
">	c #8A8A8A",
",	c #696969",
"'	c #C5C5C5",
")	c #B2B2B2",
"!	c #626262",
"~	c #8F8F8F",
"{	c #848484",
"]	c #A7A7A7",
"^	c #C9C9C9",
"/	c #8D8D8D",
"(	c #8C8C8C",
"_	c #B9B9B9",
":	c #828282",
"<	c #656565",
"[	c #909090",
"}	c #6A6A6A",
"|	c #AAAAAA",
"1	c #7A7A7A",
"2	c #808080",
"3	c #717171",
"4	c #878787",
"5	c #818181",
"6	c #727272",
"7	c #838383",
"8	c #666666",
"9	c #C7C7C7",
"0	c #BEBEBE",
"a	c #A8A8A8",
"b	c #BABABA",
"c	c #ABABAB",
".........................",
".........................",
".........................",
".........................",
".........+@#$#%+.........",
".......&*#=-;>=,*'.......",
"......)!%~;;;;;~{!]......",
".....^!/;;;;;;;;;(*_.....",
".....*{;;;;;;;;;;;:<.....",
"....+#~;;;;;;;;;;;[}|....",
"....@1;;;;;;;;;;;;;23....",
"....,-;;;;;;;;;;;;;4#....",
"....*/;;;;;;;;;;;;;-$....",
"....,-;;;;;;;;;;;;;4,....",
"....4=;;;;;;;;;;;;;56....",
"....+,~;;;;;;;;;;;[}|....",
".....*7;;;;;;;;;;;58.....",
".....9!(;;;;;;;;;-!0.....",
"......a*5[;;;;;[5!a......",
".......b8}24-45}80.......",
".........c3,$,6|.........",
".........................",
".........................",
".........................",
"........................."};
