/* XPM */
static char * grey_xpm[] = {
"25 25 44 1",
" 	c None",
".	c #F1F1F1",
"+	c #EDEDED",
"@	c #B6B6B6",
"#	c #868686",
"$	c #686868",
"%	c #5F5F5F",
"&	c #858585",
"*	c #C8C8C8",
"=	c #606060",
"-	c #7B7B7B",
";	c #898989",
">	c #8E8E8E",
",	c #8A8A8A",
"'	c #696969",
")	c #C5C5C5",
"!	c #B2B2B2",
"~	c #626262",
"{	c #8F8F8F",
"]	c #848484",
"^	c #A7A7A7",
"/	c #C9C9C9",
"(	c #8D8D8D",
"_	c #8C8C8C",
":	c #B9B9B9",
"<	c #828282",
"[	c #656565",
"}	c #909090",
"|	c #6A6A6A",
"1	c #AAAAAA",
"2	c #7A7A7A",
"3	c #808080",
"4	c #717171",
"5	c #878787",
"6	c #818181",
"7	c #727272",
"8	c #EEEEEE",
"9	c #838383",
"0	c #666666",
"a	c #C7C7C7",
"b	c #BEBEBE",
"c	c #A8A8A8",
"d	c #BABABA",
"e	c #ABABAB",
".........................",
".........................",
".........................",
".........................",
"........+@#$%$&@+........",
".......*=$-;>,-'=).......",
"......!~&{>>>>>{]~^......",
"...../~(>>>>>>>>>_=:.....",
"....+=]>>>>>>>>>>><[.....",
"....@${>>>>>>>>>>>}|1....",
"....#2>>>>>>>>>>>>>34....",
"....';>>>>>>>>>>>>>5$....",
"....=(>>>>>>>>>>>>>;%....",
"....';>>>>>>>>>>>>>5'....",
"....5->>>>>>>>>>>>>67....",
"....@'{>>>>>>>>>>>}|1....",
"....8=9>>>>>>>>>>>60.....",
".....a~_>>>>>>>>>;~b.....",
"......c=6}>>>>>}6~c......",
".......d0|35;56|0b.......",
".........e4'%'71.........",
".........................",
".........................",
".........................",
"........................."};
