/* XPM */
static char * grey_xpm[] = {
"25 25 26 1",
" 	c None",
".	c #616161",
"+	c #767676",
"@	c #888888",
"#	c #8D8D8D",
"$	c #898989",
"%	c #606060",
"&	c #5F5F5F",
"*	c #7E7E7E",
"=	c #8E8E8E",
"-	c #7C7C7C",
";	c #848484",
">	c #8F8F8F",
",	c #7D7D7D",
"'	c #777777",
")	c #909090",
"!	c #636363",
"~	c #757575",
"{	c #7F7F7F",
"]	c #8C8C8C",
"^	c #828282",
"/	c #747474",
"(	c #919191",
"_	c #626262",
":	c #7B7B7B",
"<	c #838383",
"                         ",
"                         ",
"                         ",
"                         ",
"          .....          ",
"        ..+@#$+%.        ",
"       &*#=====#-%       ",
"      &;>=======>;%      ",
"     .,>=========>'%     ",
"     .#===========)!     ",
"    .+=============~.    ",
"    .@============={%    ",
"    .]=============^&    ",
"    .@=============*%    ",
"    .~=============/.    ",
"     %#===========(_     ",
"     .:>==========+%     ",
"      %<>========{.      ",
"       %')=====(+.       ",
"        %!/{^*/_%        ",
"          .%&%.          ",
"                         ",
"                         ",
"                         ",
"                         "};
