/* XPM */
static char * red_xpm[] = {
"25 25 43 1",
" 	c None",
".	c #C40007",
"+	c #C30006",
"@	c #E01E25",
"#	c #F73840",
"$	c #FD3F47",
"%	c #F73941",
"&	c #E11F26",
"*	c #C20005",
"=	c #E7272F",
"-	c #FE4048",
";	c #FF4149",
">	c #E82830",
",	c #F13239",
"'	c #FF424A",
")	c #F3333B",
"!	c #E6252D",
"~	c #FF4249",
"{	c #E01F27",
"]	c #FF454D",
"^	c #C8050C",
"/	c #DA1920",
"(	c #DB1920",
"_	c #EA2A32",
":	c #FA3B43",
"<	c #EF3038",
"[	c #C20004",
"}	c #F2333B",
"|	c #EA2A31",
"1	c #C40006",
"2	c #FE3F47",
"3	c #C7040B",
"4	c #E32229",
"5	c #DE1C23",
"6	c #EC2D34",
"7	c #DF1E26",
"8	c #FF444C",
"9	c #E01E26",
"0	c #C7030A",
"a	c #DD1C24",
"b	c #EB2B32",
"c	c #EF3037",
"d	c #EB2B33",
"                         ",
"                         ",
"                         ",
"                         ",
"          .....          ",
"        .+@#$%&+.        ",
"       *=-;;;;;->+       ",
"      *,';;;;;;;')+      ",
"     .!';;;;;;;;;~{+     ",
"     +-;;;;;;;;;;;]^     ",
"    ./;;;;;;;;;;;;;(.    ",
"    .);;;;;;;;;;;;;_*    ",
"    .:;;;;;;;;;;;;;<[    ",
"    .};;;;;;;;;;;;;|*    ",
"    ./;;;;;;;;;;;;;/.    ",
"     12;;;;;;;;;;;]3     ",
"     .4';;;;;;;;;;5+     ",
"      +<';;;;;;;;6.      ",
"       *78';;;']9+       ",
"        +0abcda0+        ",
"          .***.          ",
"                         ",
"                         ",
"                         ",
"                         "};
