/* XPM */
static char * red_xpm[] = {
"25 25 81 1",
" 	c None",
".	c #F1F1F1",
"+	c #F0ECEC",
"@	c #DE8F92",
"#	c #CE4043",
"$	c #C41013",
"%	c #C10004",
"&	c #CE3F43",
"*	c #DE8E91",
"=	c #F0EDED",
"-	c #E5B0B2",
";	c #C30005",
">	c #CD0A11",
",	c #E5252D",
"'	c #F93A42",
")	c #FF4149",
"!	c #E6262D",
"~	c #CE0B12",
"{	c #C30006",
"]	c #E3ABAD",
"^	c #DE8D90",
"/	c #C50209",
"(	c #F2333A",
"_	c #FF424A",
":	c #F03139",
"<	c #C50108",
"[	c #DA7A7E",
"}	c #E5B2B4",
"|	c #C50109",
"1	c #FE4048",
"2	c #FC3E46",
"3	c #C40006",
"4	c #E0989A",
"5	c #F0EEEE",
"6	c #F1323A",
"7	c #EE2D35",
"8	c #C3080D",
"9	c #DF9396",
"0	c #FF434B",
"a	c #FF444C",
"b	c #D00D14",
"c	c #DB7C80",
"d	c #D04549",
"e	c #E4232B",
"f	c #EA2A32",
"g	c #CB262C",
"h	c #C5161A",
"i	c #F73840",
"j	c #F4353D",
"k	c #C61419",
"l	c #C2070B",
"m	c #FD3F47",
"n	c #F83941",
"o	c #C3060A",
"p	c #C51318",
"q	c #CF4549",
"r	c #E5242B",
"s	c #EB2B33",
"t	c #CB272D",
"u	c #DF9497",
"v	c #CF0C14",
"w	c #DB7B7F",
"x	c #F0EFEF",
"y	c #EE2F37",
"z	c #ED2D35",
"A	c #C40B10",
"B	c #E4ADAF",
"C	c #FB3D45",
"D	c #E19EA1",
"E	c #EE2E35",
"F	c #EE2F36",
"G	c #DA797D",
"H	c #E09A9C",
"I	c #C40A0F",
"J	c #F6373E",
"K	c #CF0D14",
"L	c #E19DA0",
"M	c #DB7D81",
"N	c #C91D23",
"O	c #C40E12",
"P	c #C20005",
".........................",
".........................",
".........................",
".........................",
"........+@#$%$&*=........",
".......-;>,')'!~{].......",
"......^/(_)))))_:<[......",
".....}|1)))))))))234.....",
"....5;6)))))))))))78.....",
"....9>0)))))))))))abc....",
"....de)))))))))))))fg....",
"....hi)))))))))))))jk....",
"....lm)))))))))))))no....",
"....hi)))))))))))))jp....",
"....qr)))))))))))))st....",
"....u~_)))))))))))avw....",
"....x{y)))))))))))zA.....",
".....B<C)))))))))'/D.....",
"......[{E0)))))aF<G......",
".......HIbzJnJzKAL.......",
".........MNOPON[.........",
".........................",
".........................",
".........................",
"........................."};
