/* XPM */
static char * yellow_xpm[] = {
"25 25 34 1",
" 	c None",
".	c #BE9300",
"+	c #BD9200",
"@	c #BF9300",
"#	c #CA9B00",
"$	c #E3AF00",
"%	c #F7BE00",
"&	c #FDC300",
"*	c #F6BE00",
"=	c #CA9C00",
"-	c #C29500",
";	c #F1BA00",
">	c #FEC400",
",	c #EDB700",
"'	c #C19500",
")	c #FAC000",
"!	c #F0B900",
"~	c #EAB400",
"{	c #FFC500",
"]	c #CB9D00",
"^	c #E7B200",
"/	c #C09400",
"(	c #BE9200",
"_	c #FCC200",
":	c #F4BD00",
"<	c #F6BD00",
"[	c #CB9C00",
"}	c #FAC100",
"|	c #ECB600",
"1	c #EBB500",
"2	c #CD9E00",
"3	c #EAB500",
"4	c #F3BB00",
"5	c #F3BC00",
"                         ",
"                         ",
"                         ",
"                         ",
"          .+++.          ",
"        @#$%&*$=@        ",
"       -;>&&&&&>,'       ",
"      -&&&&&&&&&&)@      ",
"     @!&&&&&&&&&&&~.     ",
"     =>&&&&&&&&&&&{]     ",
"    .$&&&&&&&&&&&&&^/    ",
"    +*&&&&&&&&&&&&&;(    ",
"    +_&&&&&&&&&&&&&:(    ",
"    +<&&&&&&&&&&&&&;(    ",
"    .$&&&&&&&&&&&&&^/    ",
"     [>&&&&&&&&&&&{=     ",
"     @,&&&&&&&&&&&~.     ",
"      '}&&&&&&&&&<'      ",
"      /@|{&&&&&{1'       ",
"        .234*51].        ",
"          /.(./          ",
"                         ",
"                         ",
"                         ",
"                         "};
