/* XPM */
static char * yellow_xpm[] = {
"25 25 74 1",
" 	c None",
".	c #F1F1F1",
"+	c #EFEEEB",
"@	c #DDCB8E",
"#	c #CBAB3F",
"$	c #C09810",
"%	c #BD9200",
"&	c #C09811",
"*	c #CBAC40",
"=	c #DDCB90",
"-	c #F0EFEE",
";	c #E3D7AD",
">	c #BF9300",
",	c #CA9B00",
"'	c #E3AF00",
")	c #F7BE00",
"!	c #FDC300",
"~	c #F6BE00",
"{	c #CA9C00",
"]	c #E3D6AC",
"^	c #DBC889",
"/	c #C29500",
"(	c #F1BA00",
"_	c #FEC400",
":	c #EDB700",
"<	c #C19500",
"[	c #D9C47E",
"}	c #E3D7AE",
"|	c #FAC000",
"1	c #DFD09C",
"2	c #F0EFEC",
"3	c #F0B900",
"4	c #EAB400",
"5	c #C0970A",
"6	c #DDCB8F",
"7	c #FFC500",
"8	c #CB9D00",
"9	c #DAC683",
"0	c #CBAC41",
"a	c #E7B200",
"b	c #C8A328",
"c	c #C09911",
"d	c #C29A16",
"e	c #BD9302",
"f	c #FCC200",
"g	c #F4BD00",
"h	c #C0960C",
"i	c #F6BD00",
"j	c #C8A429",
"k	c #CB9C00",
"l	c #DAC682",
"m	c #F0EFED",
"n	c #C0980D",
"o	c #E2D5AA",
"p	c #FAC100",
"q	c #E1D3A3",
"r	c #D8C176",
"s	c #ECB600",
"t	c #EBB500",
"u	c #D9C47D",
"v	c #DECD95",
"w	c #C09609",
"x	c #CD9E00",
"y	c #EAB500",
"z	c #F3BB00",
"A	c #F3BC00",
"B	c #E0D2A1",
"C	c #D8C37A",
"D	c #C59E1C",
"E	c #C1980E",
"F	c #BE9200",
"G	c #C1980F",
"H	c #C69F1E",
"I	c #D9C47C",
".........................",
".........................",
".........................",
".........................",
"........+@#$%&*=-........",
".......;>,')!~'{>].......",
"......^/(_!!!!!_:<[......",
".....}/!!!!!!!!!!|>1.....",
"....2>3!!!!!!!!!!!45.....",
"....6{_!!!!!!!!!!!789....",
"....0'!!!!!!!!!!!!!ab....",
"....c~!!!!!!!!!!!!!(d....",
"....ef!!!!!!!!!!!!!gh....",
"....ci!!!!!!!!!!!!!(d....",
"....0'!!!!!!!!!!!!!aj....",
"....=k_!!!!!!!!!!!7{l....",
"....m>:!!!!!!!!!!!4n.....",
".....o<p!!!!!!!!!i<q.....",
"......r>s7!!!!!7t<u......",
".......vwxyz~At8nB.......",
".........CDEFGHI.........",
".........................",
".........................",
".........................",
"........................."};
