/* XPM */
static char * yellow_dark_xpm[] = {
"25 25 70 1",
" 	c None",
".	c #D9D9D9",
"+	c #DDCB8E",
"@	c #CBAB3F",
"#	c #C09810",
"$	c #BD9200",
"%	c #C09811",
"&	c #CBAC40",
"*	c #DDCB90",
"=	c #E3D7AD",
"-	c #BF9300",
";	c #CA9B00",
">	c #E3AF00",
",	c #F7BE00",
"'	c #FDC300",
")	c #F6BE00",
"!	c #CA9C00",
"~	c #E3D6AC",
"{	c #DBC889",
"]	c #C29500",
"^	c #F1BA00",
"/	c #FEC400",
"(	c #EDB700",
"_	c #C19500",
":	c #D9C47E",
"<	c #E3D7AE",
"[	c #FAC000",
"}	c #DFD09C",
"|	c #F0B900",
"1	c #EAB400",
"2	c #C0970A",
"3	c #DDCB8F",
"4	c #FFC500",
"5	c #CB9D00",
"6	c #DAC683",
"7	c #CBAC41",
"8	c #E7B200",
"9	c #C8A328",
"0	c #C09911",
"a	c #C29A16",
"b	c #BD9302",
"c	c #FCC200",
"d	c #F4BD00",
"e	c #C0960C",
"f	c #F6BD00",
"g	c #C8A429",
"h	c #CB9C00",
"i	c #DAC682",
"j	c #C0980D",
"k	c #E2D5AA",
"l	c #FAC100",
"m	c #E1D3A3",
"n	c #D8C176",
"o	c #ECB600",
"p	c #EBB500",
"q	c #D9C47D",
"r	c #DECD95",
"s	c #C09609",
"t	c #CD9E00",
"u	c #EAB500",
"v	c #F3BB00",
"w	c #F3BC00",
"x	c #E0D2A1",
"y	c #D8C37A",
"z	c #C59E1C",
"A	c #C1980E",
"B	c #BE9200",
"C	c #C1980F",
"D	c #C69F1E",
"E	c #D9C47C",
".........................",
".........................",
".........................",
".........................",
".........+@#$%&*.........",
".......=-;>,')>!-~.......",
"......{]^/'''''/(_:......",
".....<]''''''''''[-}.....",
".....-|'''''''''''12.....",
"....3!/'''''''''''456....",
"....7>'''''''''''''89....",
"....0)'''''''''''''^a....",
"....bc'''''''''''''de....",
"....0f'''''''''''''^a....",
"....7>'''''''''''''8g....",
"....*h/'''''''''''4!i....",
".....-('''''''''''1j.....",
".....k_l'''''''''f_m.....",
"......n-o4'''''4p_q......",
".......rstuv)wp5jx.......",
".........yzABCDE.........",
".........................",
".........................",
".........................",
"........................."};
